<?xml version="1.0" encoding="iso-8859-1"?>
<!-- Generator: Adobe Illustrator 17.1.0, SVG Export Plug-In . SVG Version: 6.00 Build 0)  -->
<!DOCTYPE svg PUBLIC "-//W3C//DTD SVG 1.1//EN" "http://www.w3.org/Graphics/SVG/1.1/DTD/svg11.dtd">
<svg version="1.1" id="Capa_1" xmlns="http://www.w3.org/2000/svg" xmlns:xlink="http://www.w3.org/1999/xlink" x="0px" y="0px"
	 viewBox="0 0 92.9 92.9" style="enable-background:new 0 0 92.9 92.9;" xml:space="preserve">
<g>
	<path d="M72.932,46.973L61.629,40.45c-0.725-0.418-1.601-1.531-1.837-2.334l-3.501-11.912c-0.087-0.298-0.219-0.564-0.381-0.798
		c-0.509-0.936-1.49-1.572-2.627-1.572l-14.945,0.645c-0.655,0.028-1.264,0.276-1.763,0.687c-0.1,0.061-0.204,0.12-0.294,0.189
		l-10.155,7.832c-1.173,0.905-1.83,2.745-1.494,4.188l4.021,17.3c0.335,1.444,1.717,2.534,3.212,2.534
		c0.101,0,0.203-0.005,0.304-0.015l1.501-0.15c0.804-0.081,1.53-0.489,1.99-1.121c0.461-0.632,0.628-1.448,0.459-2.238L33.26,40.33
		c-0.15-0.701,0.23-1.738,0.798-2.175l1.809-1.393l0.93,21.444c0.001,0.023,0.008,0.044,0.01,0.067l-4.128,9.156
		c-0.52,1.153-1.826,2.75-2.852,3.489l-9.678,6.968c-1.559,1.122-2.148,3.366-1.342,5.11l1.324,2.861
		c0.528,1.141,1.587,1.85,2.765,1.85c0.674,0,1.337-0.229,1.917-0.66l12.778-9.515c1.273-0.948,2.843-2.793,3.574-4.202
		l6.379-12.286c0.051-0.099,0.083-0.205,0.125-0.308l0.445-0.019l10.441,28.786c0.737,2.032,2.703,3.398,4.892,3.398
		c0.52,0,1.034-0.079,1.528-0.236l0.644-0.205c1.276-0.405,2.301-1.282,2.887-2.47c0.585-1.188,0.656-2.536,0.2-3.794L57.711,55.885
		c-0.051-0.14-0.121-0.268-0.182-0.401l-0.353-8.134l12.122,6.297c0.426,0.222,0.906,0.339,1.389,0.339
		c1.122,0,2.149-0.607,2.68-1.584l0.721-1.328C74.872,49.633,74.353,47.793,72.932,46.973z"/>
	<path d="M44.162,21.673c0.157,0,0.316-0.003,0.475-0.01c2.891-0.125,5.561-1.37,7.517-3.503s2.964-4.901,2.839-7.792
		C54.735,4.397,49.745-0.249,43.698,0.01c-2.891,0.125-5.561,1.37-7.517,3.503c-1.956,2.134-2.964,4.901-2.839,7.792
		C33.594,17.119,38.347,21.673,44.162,21.673z"/>
</g>
<g>
</g>
<g>
</g>
<g>
</g>
<g>
</g>
<g>
</g>
<g>
</g>
<g>
</g>
<g>
</g>
<g>
</g>
<g>
</g>
<g>
</g>
<g>
</g>
<g>
</g>
<g>
</g>
<g>
</g>
</svg>
