<?xml version="1.0" encoding="iso-8859-1"?>
<!-- Generator: Adobe Illustrator 19.0.0, SVG Export Plug-In . SVG Version: 6.00 Build 0)  -->
<svg version="1.1" id="Layer_1" xmlns="http://www.w3.org/2000/svg" xmlns:xlink="http://www.w3.org/1999/xlink" x="0px" y="0px"
	 viewBox="0 0 299.185 299.185" fill="" style="enable-background:new 0 0 299.185 299.185;" xml:space="preserve">
<g id="XMLID_1263_">
	<g>
		<g>
			<circle cx="69.498" cy="118.638" r="22.402"/>
			<path d="M288.485,146.169l-38.664-32.082l-8.072-12.67l1.709-19.876l0.012-0.145c0.837-9.728-6.391-18.217-16.03-19.045
				l-31.274-2.688c-9.595-0.825-18.206,6.269-19.045,16.03l-0.255,2.972c17.015-12.223,15.765-11.397,17.058-12.059
				c-1.087,0.952,1.839-2.424-38.438,45.498c-0.787,0.937-1.424,1.991-1.888,3.123l-19.709,48.214
				c-0.15,0.368-0.279,0.738-0.39,1.111c-0.733-0.077-1.483-0.08-2.246,0.02l-28.046,3.659l-30.844-13.141l19.333,2.804
				c-1.535-5.178-6.323-8.958-11.998-8.958H49.497c-4.498-4.538-10.089-7.229-16.147-7.229c-14.862,0-26.909,16.18-26.909,36.138
				s12.048,36.138,26.909,36.138c4.718,0,9.149-1.635,13.004-4.499v6.482l-2.572,27.689l-24.147,26.103
				c-3.897,4.212-3.641,10.786,0.571,14.683c4.215,3.899,10.789,3.639,14.683-0.571l26.539-28.69
				c1.552-1.678,2.508-3.819,2.718-6.095l2.4-25.831h3.669l6.601,28.044l-5.09,36.045c-0.803,5.682,3.153,10.938,8.835,11.74
				c5.677,0.803,10.938-3.151,11.74-8.835l5.364-37.978c0.181-1.277,0.122-2.577-0.174-3.833l-5.928-25.183l0.653-29.279
				l-27.35-21.291l33.243,14.163c1.617,0.689,3.349,0.899,4.985,0.685l30.632-3.997c3.025-0.395,5.528-2.167,6.976-4.599
				c1.347,0.5,2.728,0.751,4.091,0.751c4.644,0,9.046-2.764,10.913-7.329l19.01-46.506c37.028-44.296,36.273-43.05,37.028-44.296
				l-25.752,49.273l-14.546,43.07l7.262,46.26l-22.576,59.858c-2.761,7.321,0.935,15.493,8.256,18.255
				c7.326,2.762,15.495-0.941,18.255-8.256l23.897-63.358c0.865-2.295,1.121-4.774,0.74-7.196
				c-1.645-10.479-6.392-40.716-8.042-51.225l7.472,0.642l22.604,50.017l15.747,69.262c1.734,7.627,9.323,12.408,16.955,10.673
				c7.629-1.735,12.407-9.326,10.673-16.955l-16.064-70.654c-0.211-0.926-0.513-1.828-0.905-2.693l-19.472-43.088
				c0.519-6.031,2.036-23.687,2.568-29.863l34.623,28.729c5.011,4.158,12.44,3.463,16.594-1.544
				C294.185,157.754,293.493,150.325,288.485,146.169z"/>
			<path d="M217.108,52.019c14.286,1.227,26.956-9.347,28.193-23.729c1.232-14.338-9.391-26.96-23.73-28.193
				c-14.338-1.233-26.96,9.391-28.192,23.729C192.139,38.258,202.887,50.797,217.108,52.019z"/>
		</g>
	</g>
</g>
<g>
</g>
<g>
</g>
<g>
</g>
<g>
</g>
<g>
</g>
<g>
</g>
<g>
</g>
<g>
</g>
<g>
</g>
<g>
</g>
<g>
</g>
<g>
</g>
<g>
</g>
<g>
</g>
<g>
</g>
</svg>
