<?xml version="1.0" encoding="iso-8859-1"?>
<!-- Generator: Adobe Illustrator 16.0.0, SVG Export Plug-In . SVG Version: 6.00 Build 0)  -->
<!DOCTYPE svg PUBLIC "-//W3C//DTD SVG 1.1//EN" "http://www.w3.org/Graphics/SVG/1.1/DTD/svg11.dtd">
<svg version="1.1" id="Capa_1" xmlns="http://www.w3.org/2000/svg" xmlns:xlink="http://www.w3.org/1999/xlink" x="0px" y="0px"
	 width="99.38px" height="99.38px" viewBox="0 0 99.38 99.38" style="enable-background:new 0 0 99.38 99.38;" xml:space="preserve"
	>
<g>
	<g>
		<circle cx="32.668" cy="13.741" r="10.08"/>
		<path d="M67.734,74.439l-3.791-3.045c-0.857-0.689-2.111-0.553-2.8,0.305c-0.688,0.857-0.552,2.111,0.305,2.799l3.868,3.107v8.449
			c0,0.041-3.392,6.682-3.392,6.682c-0.508,0.976-0.128,2.178,0.847,2.686c0.294,0.152,0.608,0.225,0.917,0.225
			c0.719,0,1.413-0.39,1.769-1.072l3.427-6.584l3.835,6.66c0.369,0.64,1.038,0.998,1.728,0.998c0.337,0,0.679-0.086,0.992-0.267
			c0.953-0.549,1.281-1.767,0.732-2.719l-3.347-5.812h12.394v6.805c0,1.101,0.892,1.992,1.992,1.992c1.1,0,1.99-0.893,1.99-1.992
			v-7.531c0.003-0.023,0.015-0.045,0.015-0.068v-6.298l-9.275-5.317H67.734V74.439z"/>
		<path d="M94.369,70.39c-1.231-1.16-1.645-2.517-3.026-3.5c-0.241-0.17-0.485-0.345-0.741-0.49
			c-0.154-0.086-0.203-0.188-0.186-0.354c0.059-0.571,0.116-1.144,0.162-1.714c0.082-1.023-0.215-1.957-1.036-2.561
			c-0.33-0.244-1.959-1.033-2.668,1.668c-0.154,0.586-0.364,1.17-0.645,1.707c-1.023,1.967-2.324,3.766-3.567,5.598
			c-0.568,0.835-1.137,1.67-1.702,2.503l8.708,4.959c0,0,1.679-1.835,1.915-1.731c0.326,0.145,0.654,0.285,0.982,0.428
			c0.958,0.418,1.958,0.611,3.006,0.55c1.78-0.104,3.635-1.05,3.805-3.185C99.531,72.31,94.784,70.781,94.369,70.39z"/>
		<path d="M61.92,54.997l16.438,17.801l1.548-1.429L63.461,53.56c-5.026-5.343-9.446-9.653-12.623-8.309
			c-0.139,0.059-0.271,0.128-0.399,0.207c-7.507-1.032-9.096-4.524-11.5-9.807c-1.304-2.867-2.783-6.117-5.428-8.984
			c-0.019-0.021-0.043-0.035-0.063-0.056c-0.924-1.021-2.052-1.846-3.203-2.404c0,0-0.972-0.532-2.082-0.745
			c-1.061-0.204-2.898-0.15-4.062-0.008C11.807,25.252,6.352,34.335,1.093,43.147l-0.538,0.902c-1.109,1.854-0.505,4.257,1.35,5.367
			c0.629,0.376,1.321,0.555,2.005,0.555c1.331,0,2.629-0.679,3.362-1.905l0.542-0.908c2.713-4.547,5.125-8.567,8.206-11.473
			l-3.304,15.421c-0.462,2.156,0.142,4.145,1.339,5.76l-1.012,15.439L6.609,88.939c-0.992,2.566,0.283,5.451,2.849,6.442
			c0.59,0.229,1.198,0.337,1.795,0.337c1.998,0,3.882-1.211,4.646-3.186l6.708-17.346c0.182-0.471,0.292-0.967,0.325-1.471
			l0.589-8.988l5.918,9.354l4.845,17.833c0.594,2.229,2.608,3.699,4.809,3.697c0.424,0,0.856-0.055,1.287-0.168
			c2.658-0.709,4.238-3.438,3.529-6.096l-5.041-18.57c-0.13-0.486-0.333-0.952-0.604-1.379l-8.058-12.734
			c0.258-0.514,0.465-1.07,0.597-1.686L33.5,42.393c2.394,4.525,6.093,9.048,14.573,10.593c-0.002,0.641,0.014,1.322,0.047,2.045
			l2.105-0.098c-0.029-0.621-0.04-1.18-0.042-1.705c1.818-0.119,3.366-1.486,3.622-3.362c0.121-0.882-0.075-1.728-0.483-2.448
			C55.894,48.585,59.812,52.756,61.92,54.997z"/>
	</g>
</g>
<g>
</g>
<g>
</g>
<g>
</g>
<g>
</g>
<g>
</g>
<g>
</g>
<g>
</g>
<g>
</g>
<g>
</g>
<g>
</g>
<g>
</g>
<g>
</g>
<g>
</g>
<g>
</g>
<g>
</g>
</svg>
