<?xml version="1.0" encoding="iso-8859-1"?>
<!-- Generator: Adobe Illustrator 19.0.0, SVG Export Plug-In . SVG Version: 6.00 Build 0)  -->
<svg version="1.1" id="Layer_1" xmlns="http://www.w3.org/2000/svg" xmlns:xlink="http://www.w3.org/1999/xlink" x="0px" y="0px"
	 viewBox="0 0 298.236 298.236" fill="" style="enable-background:new 0 0 298.236 298.236;" xml:space="preserve">
<g id="XMLID_1512_">
	<g>
		<g>
			<path d="M284.826,145.838l-38.507-31.952l-8.04-12.619l1.702-19.796l0.012-0.144c0.833-9.683-6.36-18.142-15.965-18.968
				l-31.147-2.678c-7.871-0.677-15.091,3.992-17.853,11.147l15.779-2.238l-46.011,17.925c-3.606,1.405-6.364,4.534-7.219,8.447
				l-10.022,45.893c-1.385,6.339,2.631,12.609,8.978,13.995c6.363,1.39,12.618-2.67,13.996-8.978l8.678-39.734l41.666-16.233
				l-30.056,21.762l-3.804,53.661c0.129,1.099-0.886-5.463,8.481,54.2l-22.485,59.615c-2.75,7.29,0.931,15.43,8.223,18.181
				c7.294,2.75,15.432-0.934,18.18-8.223l23.8-63.102c0.862-2.285,1.116-4.755,0.737-7.167c-0.726-4.625-7.073-45.052-8.009-51.018
				l7.442,0.64l22.512,49.815l15.683,68.981c1.727,7.597,9.287,12.357,16.886,10.63c7.599-1.728,12.357-9.288,10.63-16.886
				l-15.998-70.368c-0.209-0.922-0.512-1.821-0.902-2.683l-19.393-42.914c2.025-23.551,1.771-20.605,2.557-29.742l34.482,28.612
				c4.989,4.141,12.389,3.45,16.528-1.537C290.504,157.377,289.815,149.977,284.826,145.838z"/>
			<path d="M116.157,146.099c-0.542-4.538,0.313-7.388,1.31-11.95l-16.827-10.217c0,0-2.998-31.298-3.576-42.867
				c-0.483-9.67-6.319-18.139-15.965-18.968l-31.148-2.678c-9.647-0.829-18.139,6.319-18.968,15.965l-1.7,19.77l20.19-17.852
				L20.937,117.6c-2.28,3.221-2.789,7.36-1.375,11.026l16.904,43.828c2.363,6.126,9.239,9.038,15.201,6.739
				c6.044-2.332,9.081-9.13,6.739-15.201c-1.784-4.624-12.957-33.594-14.635-37.946l25.842-36.494l-13.761,36.45l13.085,33.927
				c4.562,11.829-1.274,25.191-13.208,29.793c-11.898,4.589-25.221-1.347-29.794-13.208l-3.309-8.579l-3.681,16.576
				c-0.435,1.96,0.042,4.012,1.299,5.578s3.156,2.477,5.164,2.477h80.958c-0.381-4.564-2.951-35.369-3.313-39.707
				c18.281,11.101,18.818,12.011,23.05,12.011c1.172,0,2.334-0.18,3.449-0.521C122.309,161.072,117.126,154.213,116.157,146.099z"/>
			<path d="M213.739,52.07c14.225,1.223,26.847-9.308,28.079-23.633c1.228-14.28-9.354-26.851-23.633-28.079
				s-26.851,9.354-28.079,23.633C188.871,38.364,199.575,50.853,213.739,52.07z"/>
			<path d="M59.041,205.98H30.477l2.086,13.287l-22.485,59.615c-2.749,7.29,0.931,15.43,8.223,18.181
				c7.294,2.75,15.432-0.934,18.18-8.223l23.8-63.101c0.862-2.285,1.116-4.755,0.737-7.167L59.041,205.98z"/>
			<path d="M108.492,205.98c-2.852,0-26.696,0-30.966,0l5.435,12.028l15.684,68.981c1.727,7.597,9.287,12.357,16.886,10.63
				c7.599-1.728,12.357-9.288,10.63-16.886C110.49,211.894,110.175,208.668,108.492,205.98z"/>
			<circle cx="73.032" cy="25.951" r="25.951"/>
		</g>
	</g>
</g>
<g>
</g>
<g>
</g>
<g>
</g>
<g>
</g>
<g>
</g>
<g>
</g>
<g>
</g>
<g>
</g>
<g>
</g>
<g>
</g>
<g>
</g>
<g>
</g>
<g>
</g>
<g>
</g>
<g>
</g>
</svg>
