<?xml version="1.0" encoding="iso-8859-1"?>
<!-- Generator: Adobe Illustrator 16.0.0, SVG Export Plug-In . SVG Version: 6.00 Build 0)  -->
<!DOCTYPE svg PUBLIC "-//W3C//DTD SVG 1.1//EN" "http://www.w3.org/Graphics/SVG/1.1/DTD/svg11.dtd">
<svg version="1.1" id="Capa_1" xmlns="http://www.w3.org/2000/svg" xmlns:xlink="http://www.w3.org/1999/xlink" x="0px" y="0px"
	 width="489.765px" height="489.766px" viewBox="0 0 489.765 489.766" style="enable-background:new 0 0 489.765 489.766;"
	 xml:space="preserve">
<g>
	<g>
		<path d="M330.566,225.151c-3.039,4.671-4.662,10.185-4.662,15.756c0,9.256,4.552,18.108,12.064,23.511
			c7.619,5.477,17.691,6.905,26.535,3.771c8.598-3.048,15.414-10.19,18.045-18.925c2.705-8.98,0.809-18.951-5.012-26.303
			c-5.771-7.286-14.861-11.409-24.142-10.952C344.189,212.459,335.589,217.426,330.566,225.151z"/>
		<path d="M409.083,340.095C409.14,341.68,409.046,338.508,409.083,340.095L409.083,340.095z"/>
		<path d="M148.911,126.864c6.875,3.699,14.631,5.633,22.436,5.633c18.547,0,35.787-11.202,43.334-28.146
			c7.645-17.164,4.184-37.786-8.598-51.537c-12.773-13.744-33.027-18.71-50.707-12.386c-17.385,6.218-29.863,22.515-31.297,40.924
			C122.632,99.931,132.497,118.03,148.911,126.864z"/>
		<path d="M230.743,86.291c9.053,8.169,20.979,12.749,33.172,12.749c18.525,0,35.879-10.692,44.231-27.227
			c8.468-16.761,6.529-37.465-4.877-52.372c-11.366-14.856-30.6-22.136-48.961-18.528c-18.02,3.541-32.965,17.291-38.018,34.944
			C211.134,53.882,216.831,73.735,230.743,86.291z"/>
		<g>
			<path d="M392.064,348.594c0.482,4.496,4.533,7.909,9.041,7.648c4.453-0.257,8.045-4.043,8.082-8.5
				c0.021-2.557-0.014-5.092-0.104-7.647c-0.137-5.981-1.347-12.181-3.09-17.893c-1.502-4.924-3.435-9.714-5.892-14.24
				c-6.006-11.061-14.586-20.673-24.891-27.905c-2.408-1.688-4.959-3.453-7.715-4.521c-7.822-3.83-17.203-3.875-25.063-0.125
				c-2.108,0.742-4.051,1.986-5.918,3.192c-2.324,1.5-4.551,3.147-6.699,4.89c-4.996,4.053-9.526,8.702-13.442,13.806
				c-6.859,8.938-11.931,19.425-14.226,30.483c-1.373,6.627-1.819,13.208-1.768,19.961c0.033,4.521,3.727,8.322,8.238,8.509
				c4.457,0.186,8.405-3.226,8.887-7.657c1.01-9.526,3.281-18.903,8.504-27.073v9.278l-19.111,77.191
				c-0.858,3.329-1.422,6.771,5.072,6.771h15.875l2.945,64.451c0.258,5.276,4.748,9.575,10.035,9.57
				c5.246-0.006,9.698-4.241,9.985-9.477l3.568-64.545h1.07l2.944,64.451c0.258,5.276,4.748,9.575,10.035,9.57
				c5.246-0.007,9.699-4.241,9.988-9.477l3.565-64.545h15.531c1.699,0,3.296-0.752,4.379-2.062c1.084-1.313,1.521-3.022,1.188-4.726
				l-19.416-77.479v-8.807C388.933,329.663,391.074,339.24,392.064,348.594z"/>
			<path d="M301.083,411.677l6.592-28.537l0.896-17.707c-8.222-2.07-14.189-9.443-14.25-18.134
				c-0.07-7.962,0.521-15.754,2.323-23.523c1.802-7.769,4.699-15.132,8.492-22.131c2.248-4.146,4.922-8.087,7.826-11.796
				c0.356-3.235,0.297-6.481,0.297-9.731c0-4.557,0-9.115,0-13.673c0-13.12,0-26.241,0-39.361c0-9.395,0-18.789,0-28.184
				c0-0.492,0-0.983,0-1.475c4.188,9.03,7.121,18.485,9.504,28.134c5.154-12.565,16.202-18.927,31.479-21.451
				c-2.523-9.806-6.519-22.024-10.746-31.249c-5.398-11.774-11.949-22.945-20.125-33.02c-5.338-6.581-11.308-12.626-17.775-18.096
				c-3.156-2.623-6.438-5.11-9.868-7.365c-2.882-1.894-5.978-3.572-9.103-5.057c-32.492-15.44-58.289,9.643-58.928,10.209
				c-6.934,6.159-13.867,12.318-20.801,18.479c18.295,12.895,33.418,30.017,44.02,49.711c6.787,12.606,11.494,26.482,13.826,40.602
				c1.586,9.599,2.031,19.192,1.951,28.914c-0.111,13.23-11.32,24.266-24.556,24.152c-2.008-0.017-3.961-0.275-5.83-0.753
				c0,0,18.23,66.498,19.263,70.745c1.396,5.75,1.875,17.705-11.438,17.705c-14.875,0-22.1,0-22.1,0l-1.691,29.853l3.043,72.892
				c0.408,9.041,8.08,16.431,17.139,16.438c9.02,0.008,16.678-7.287,17.133-16.29l6.166-122.119l5.096,121.97
				c0.408,9.041,8.082,16.432,17.139,16.438c9.021,0.007,16.678-7.287,17.133-16.291l2.681-53.044
				C298.884,418.381,301.083,411.677,301.083,411.677z"/>
		</g>
		<path d="M241.522,363.84c2.547,0,4.94-1.127,6.563-3.092c1.624-1.968,2.33-4.211,1.781-7.082l-32.783-118.892v-18.823
			c4.748,7.329,8.105,15.787,10.363,24.192c1.76,6.55,2.678,13.172,3.396,19.901c0.787,7.335,7.375,12.918,14.732,12.538
			c7.332-0.379,13.268-6.597,13.328-13.935c0.037-4.52,0.002-9.006-0.22-13.521c-0.303-6.2-1.27-12.405-2.53-18.475
			c-2.631-12.657-7.316-24.932-13.759-36.142c-6.447-11.224-14.592-21.446-23.982-30.348c-4.512-4.278-9.328-8.25-14.389-11.862
			c-3.873-2.764-7.926-5.517-12.268-7.492c-0.387-0.176-0.779-0.331-1.176-0.482c-12.816-6.272-28.184-6.35-41.059-0.202
			c-4.574,1.609-8.779,4.517-12.732,7.263c-5.006,3.476-9.754,7.315-14.246,11.432c-9.57,8.769-17.73,18.914-24.432,30.015
			c-3.355,5.558-6.223,11.457-8.633,17.483c-2.359,5.906-4.422,12.112-5.705,18.349c-1.283,6.227-2.219,12.415-2.826,18.745
			c-0.479,4.994-0.375,10.03-0.338,15.039c0.002,0.065,0.002,0.133,0.002,0.2c0.055,7.381,6.061,13.593,13.426,13.938
			c7.33,0.344,13.846-5.253,14.635-12.544c0.721-6.729,1.639-13.351,3.396-19.899c2.299-8.555,5.762-16.98,10.535-24.463v17.662
			L89.724,353.691c-0.492,2.508,0.158,5.075,1.778,7.047c1.623,1.972,4.019,3.104,6.573,3.104h27.365l5.001,110.242
			c0.422,8.617,7.736,15.654,16.373,15.681c8.623,0.026,15.963-6.921,16.436-15.525l6.052-110.396h1.375l4.999,110.242
			c0.422,8.617,7.738,15.654,16.373,15.681c8.623,0.026,15.965-6.921,16.438-15.525l6.052-110.396h26.983V363.84z"/>
	</g>
</g>
<g>
</g>
<g>
</g>
<g>
</g>
<g>
</g>
<g>
</g>
<g>
</g>
<g>
</g>
<g>
</g>
<g>
</g>
<g>
</g>
<g>
</g>
<g>
</g>
<g>
</g>
<g>
</g>
<g>
</g>
</svg>
