<?xml version="1.0" encoding="iso-8859-1"?>
<!-- Generator: Adobe Illustrator 17.1.0, SVG Export Plug-In . SVG Version: 6.00 Build 0)  -->
<!DOCTYPE svg PUBLIC "-//W3C//DTD SVG 1.1//EN" "http://www.w3.org/Graphics/SVG/1.1/DTD/svg11.dtd">
<svg version="1.1" id="Capa_1" xmlns="http://www.w3.org/2000/svg" xmlns:xlink="http://www.w3.org/1999/xlink" x="0px" y="0px"
	 viewBox="0 0 520.328 520.328" style="enable-background:new 0 0 520.328 520.328;" xml:space="preserve">
<g>
	<path d="M258.138,167.817c24.646,0,44.696-20.05,44.696-44.695c0-24.646-20.051-44.696-44.696-44.696
		c-24.64,0-44.685,20.051-44.685,44.696C213.452,147.767,233.498,167.817,258.138,167.817z"/>
	<path d="M330.902,194.205c32.014-29.297,35.263-35.732,37.01-39.191c7.647-15.143,11.489-50.376,12.182-57.285
		c1.047-10.433-6.591-19.774-17.028-20.823c-0.63-0.063-1.268-0.095-1.898-0.095c-9.81,0-17.945,7.36-18.927,17.119
		c-1.608,15.979-5.15,37.064-8.1,43.541c-3.728,5.362-21.901,22.558-41.064,39.66h-65.824c-19.163-17.104-37.338-34.3-41.066-39.662
		c-2.95-6.469-6.491-27.554-8.098-43.534c-0.979-9.764-9.108-17.127-18.911-17.127c-0.635,0-1.278,0.032-1.913,0.096
		c-10.438,1.047-18.077,10.389-17.031,20.824c0.692,6.91,4.534,42.146,12.181,57.285c1.745,3.456,4.993,9.89,37.013,39.192
		c8.893,8.139,17.39,15.659,22.924,20.512v209.016c0,10.911,8.876,19.787,19.786,19.787c10.911,0,19.787-8.876,19.787-19.787
		V314.118h12.504v109.615c0,10.911,8.876,19.787,19.787,19.787c10.911,0,19.787-8.876,19.787-19.787l-0.066-205.484
		C308.472,214.301,319.39,204.741,330.902,194.205z"/>
	<path d="M162.338,244.228c-2.105-4.87-6.857-8.006-12.147-8.131c-0.033-0.001-47.836-0.009-47.916-0.009
		c-4.042,0-7.788,1.797-10.31,4.781L89.426,235c-1.901-4.397-6.226-7.237-11.018-7.237c-0.111,0-43.031,0-43.276,0
		c-5.852,0-9.117,2.841-11.017,7.237l-23.122,53.47c-1.273,2.941-1.323,6.202-0.144,9.181c1.181,2.979,3.451,5.319,6.391,6.59
		c1.516,0.657,3.116,0.99,4.758,0.99c4.79,0,9.113-2.841,11.014-7.237l4.859-11.237v103.528c0,7.284,5.928,13.21,13.213,13.21
		c7.284,0,13.21-5.926,13.21-13.21v-67.833h5.572v67.833c0,7.284,5.927,13.21,13.211,13.21c7.284,0,13.211-5.926,13.211-13.21
		v-71.546c0.961-1.069,1.767-2.296,2.357-3.662l5.397-12.483c0.023,0.017,0.045,0.037,0.067,0.055v116.225
		c0,8.192,6.666,14.857,14.859,14.857c8.192,0,14.857-6.665,14.857-14.857v-77.101h6.266v77.101c0,8.192,6.665,14.857,14.858,14.857
		c8.192,0,14.857-6.665,14.857-14.857l0.035-112.43l3.733,8.634c2.139,4.944,7.002,8.139,12.389,8.139
		c1.844,0,3.644-0.374,5.35-1.112c3.308-1.429,5.86-4.061,7.188-7.412c1.328-3.351,1.27-7.018-0.16-10.325L162.338,244.228z"/>
	<path d="M128.304,231.144c18.751,0,34.005-15.255,34.005-34.006c0-18.75-15.254-34.004-34.005-34.004
		c-18.746,0-33.997,15.254-33.997,34.004C94.307,215.889,109.558,231.144,128.304,231.144z"/>
	<path d="M58.274,223.365c16.672,0,30.235-13.563,30.235-30.235c0-16.671-13.563-30.234-30.235-30.234
		c-16.668,0-30.228,13.564-30.228,30.234C28.047,209.801,41.606,223.365,58.274,223.365z"/>
	<path d="M358.019,197.138c0,18.751,15.254,34.006,34.005,34.006c18.746,0,33.997-15.255,33.997-34.006
		c0-18.75-15.251-34.004-33.997-34.004C373.273,163.134,358.019,178.388,358.019,197.138z"/>
	<path d="M519.336,288.47L496.213,235c-1.899-4.397-6.224-7.237-11.017-7.237c-0.245,0-43.165,0-43.276,0
		c-4.792,0-9.116,2.841-11.018,7.237l-2.539,5.87c-2.522-2.984-6.268-4.781-10.31-4.781c-0.08,0-47.883,0.009-47.916,0.009
		c-5.858,0-10.042,3.261-12.147,8.131l-26.005,60.137c-1.431,3.308-1.488,6.975-0.16,10.325c1.327,3.351,3.88,5.983,7.187,7.412
		c1.707,0.738,3.507,1.112,5.351,1.112c5.387,0,10.25-3.194,12.389-8.139l3.733-8.634l0.035,112.43
		c0,8.192,6.665,14.857,14.858,14.857c8.193,0,14.858-6.665,14.858-14.857v-77.101h6.266v77.101c0,8.192,6.665,14.857,14.857,14.857
		c8.193,0,14.859-6.665,14.859-14.857V302.647c0.022-0.018,0.044-0.037,0.067-0.055l5.397,12.483
		c0.591,1.366,1.396,2.593,2.357,3.662v71.546c0,7.284,5.927,13.21,13.211,13.21s13.211-5.926,13.211-13.21v-67.833h5.572v67.833
		c0,7.284,5.926,13.21,13.21,13.21c7.285,0,13.213-5.926,13.213-13.21V286.755l4.859,11.237c1.9,4.396,6.224,7.237,11.014,7.237
		c1.642,0,3.242-0.333,4.756-0.989c2.941-1.271,5.212-3.612,6.393-6.591C520.658,294.671,520.608,291.411,519.336,288.47z"/>
	<path d="M462.054,223.365c16.668,0,30.228-13.563,30.228-30.235c0-16.671-13.56-30.234-30.228-30.234
		c-16.672,0-30.235,13.564-30.235,30.234C431.818,209.801,445.382,223.365,462.054,223.365z"/>
</g>
<g>
</g>
<g>
</g>
<g>
</g>
<g>
</g>
<g>
</g>
<g>
</g>
<g>
</g>
<g>
</g>
<g>
</g>
<g>
</g>
<g>
</g>
<g>
</g>
<g>
</g>
<g>
</g>
<g>
</g>
</svg>
