<?xml version='1.0' encoding='iso-8859-1'?>
<svg version="1.1" xmlns="http://www.w3.org/2000/svg" viewBox="0 0 321.736 321.736" xmlns:xlink="http://www.w3.org/1999/xlink" enable-background="new 0 0 321.736 321.736">
  <g>
    <g>
      <circle cx="155.868" cy="25.907" r="25.907"/>
      <path d="m176.883,108.591l-28.571-16.244 50.36,14.829c0,0 0.001,0 0.002,0.001 3.995,1.175 8.381,0.253 11.562-2.414l38.264-32.093c5.282-4.429 5.988-12.314 1.544-17.61-0.002-0.002-0.003-0.004-0.005-0.005-4.406-5.246-12.314-5.977-17.605-1.539l-33.129,27.784-45.605-13.428c22.564,0.704 27.079,0.845 41.402,1.291l18.034-15.126 23.206-34.919c-3.619-0.216-7.302,1.134-9.948,4.009l-30.917,33.583-20.528,3.238c0,0-18.553-0.388-34.822-0.378-9.665,0-17.501,7.835-17.501,17.501 0,7.14 0,56.298 0,66.811 9.623,1.195 19.475,1.871 29.47,2.007 5.073-7.632 11.186-16.832 24.787-37.298z"/>
      <path d="m152.195,225.241c1.221,0.017 2.445,0.026 3.673,0.026 78.614,0 142.362-35.16 142.362-78.526 0-5.793-1.192-11.424-3.393-16.848-2.183-5.381-8.708-7.536-13.681-4.446-22.393,13.915-50.53,24.154-81.993,29.118l-46.968,70.676z"/>
      <path d="m103.057,219.683l41.208-62.008c-44.232-1.797-84.001-13.783-113.68-32.219-4.943-3.071-11.491-0.947-13.679,4.444-2.201,5.421-3.4,11.05-3.4,16.841 2.30926e-14,33.075 37.073,61.372 89.551,72.942z"/>
      <path d="m257.345,45.332l15.214-22.895c3.057-4.601 1.806-10.807-2.794-13.864-4.601-3.058-10.809-1.804-13.864,2.794l-18.209,27.401c7.474-0.855 14.552,1.71 19.653,6.564z"/>
      <path d="m187.34,114.537l-73.683,110.877h24.015l70.809-106.553c-10.727,2.848-16.82-1.868-21.141-4.324z"/>
      <path d="m46.694,247.414c0,5.522 4.478,10 10,10h86.36c5.522,0 10-4.478 10-10s-4.478-10-10-10h-86.36c-5.522,0-10,4.478-10,10z"/>
      <path d="m298.23,269.903h-166.928c-5.523,0-10,4.478-10,10s4.477,10 10,10h166.928c5.522,0 10-4.478 10-10s-4.478-10-10-10z"/>
      <path d="m103.374,301.736h-77.644c-5.523,0-10,4.477-10,10 0,5.522 4.477,10 10,10h77.644c5.523,0 10-4.478 10-10-1.42109e-14-5.523-4.477-10-10-10z"/>
    </g>
  </g>
</svg>
