<?xml version="1.0" encoding="iso-8859-1"?>
<!-- Generator: Adobe Illustrator 18.0.0, SVG Export Plug-In . SVG Version: 6.00 Build 0)  -->
<!DOCTYPE svg PUBLIC "-//W3C//DTD SVG 1.1//EN" "http://www.w3.org/Graphics/SVG/1.1/DTD/svg11.dtd">
<svg version="1.1" id="Capa_1" xmlns="http://www.w3.org/2000/svg" xmlns:xlink="http://www.w3.org/1999/xlink" x="0px" y="0px"
	 viewBox="0 0 460.289 460.289" style="enable-background:new 0 0 460.289 460.289;" xml:space="preserve">
<g>
	<circle cx="130.372" cy="117.725" r="35.937"/>
	<path d="M104.52,205.693l10.495,42.675c17.392,1.394,33.546,8.804,45.996,21.255c2.423,2.423,5.658,3.758,9.11,3.758
		c3.451,0,6.686-1.334,9.109-3.758c8.792-8.792,19.431-15.07,31.046-18.498l-18.169-73.878l70.709-95.994
		c5.68-7.711,4.033-18.566-3.678-24.245c-7.71-5.678-18.564-4.034-24.245,3.677l-71.473,97.031
		c-1.011,0.202-43.595,10.554-46.097,11.523L29.71,80.048C23,73.218,12.023,73.119,5.189,79.829
		c-6.832,6.711-6.93,17.69-0.218,24.522L104.52,205.693z"/>
	<circle cx="384.048" cy="74.268" r="61.264"/>
	<path d="M189.953,280.346c-10.937,10.935-28.729,10.935-39.666,0c-22.76-22.761-59.796-22.763-82.558,0
		c-5.298,5.297-12.341,8.215-19.834,8.215c-7.492,0-14.535-2.918-19.833-8.215c-5.922-5.923-15.524-5.923-21.446,0
		c-5.923,5.922-5.923,15.524,0,21.446c22.762,22.763,59.798,22.761,82.558,0c5.298-5.297,12.341-8.215,19.833-8.215
		c7.493,0,14.536,2.917,19.834,8.215c22.762,22.763,59.798,22.761,82.558,0c5.298-5.297,12.341-8.215,19.833-8.215
		c7.492,0,14.536,2.917,19.834,8.215c11.025,11.026,25.685,17.098,41.279,17.098s30.253-6.072,41.279-17.098
		c5.298-5.297,12.341-8.215,19.834-8.215c7.492,0,14.535,2.917,19.833,8.215c22.76,22.761,59.796,22.763,82.558,0
		c5.923-5.922,5.923-15.524,0-21.446c-5.922-5.923-15.524-5.923-21.446,0c-5.298,5.297-12.341,8.215-19.833,8.215
		c-7.492,0-14.536-2.918-19.834-8.215c-22.762-22.763-59.798-22.76-82.558,0c-5.298,5.298-12.341,8.215-19.833,8.215
		c-7.492,0-14.535-2.917-19.833-8.215c-11.026-11.026-25.686-17.098-41.279-17.098C215.64,263.248,200.98,269.32,189.953,280.346z"
		/>
	<path d="M434.401,344.543c-5.298,5.297-12.341,8.215-19.833,8.215c-7.492,0-14.536-2.917-19.834-8.215
		c-22.762-22.762-59.798-22.76-82.558,0c-5.298,5.298-12.341,8.215-19.833,8.215c-7.492,0-14.535-2.917-19.833-8.215
		c-11.026-11.026-25.686-17.098-41.279-17.098c-15.592,0-30.252,6.072-41.279,17.098c-10.937,10.935-28.729,10.935-39.666,0
		c-22.76-22.761-59.796-22.762-82.558,0c-5.298,5.297-12.341,8.215-19.834,8.215c-7.492,0-14.535-2.917-19.833-8.215
		c-5.922-5.923-15.524-5.923-21.446,0c-5.923,5.922-5.923,15.524,0,21.446c22.762,22.762,59.798,22.761,82.558,0
		c5.298-5.297,12.341-8.215,19.833-8.215c7.493,0,14.536,2.917,19.834,8.215c22.762,22.762,59.798,22.761,82.558,0
		c5.298-5.297,12.341-8.215,19.833-8.215c7.492,0,14.536,2.917,19.834,8.215c11.025,11.026,25.685,17.098,41.279,17.098
		s30.253-6.072,41.279-17.098c5.298-5.297,12.341-8.215,19.834-8.215c7.492,0,14.535,2.917,19.833,8.215
		c22.76,22.761,59.796,22.762,82.558,0c5.923-5.922,5.923-15.524,0-21.446C449.925,338.621,440.323,338.621,434.401,344.543z"/>
	<path d="M434.401,408.741c-5.298,5.297-12.341,8.215-19.833,8.215c-7.492,0-14.536-2.917-19.834-8.215
		c-22.762-22.763-59.798-22.76-82.558,0c-5.298,5.298-12.341,8.215-19.833,8.215c-7.492,0-14.535-2.917-19.833-8.215
		c-11.026-11.026-25.686-17.098-41.279-17.098c-15.592,0-30.252,6.072-41.279,17.098c-10.937,10.935-28.729,10.935-39.666,0
		c-22.76-22.761-59.796-22.763-82.558,0c-5.298,5.297-12.341,8.215-19.834,8.215c-7.492,0-14.535-2.917-19.833-8.215
		c-5.922-5.923-15.524-5.923-21.446,0c-5.923,5.922-5.923,15.524,0,21.446c22.762,22.763,59.798,22.761,82.558,0
		c5.298-5.297,12.341-8.215,19.833-8.215c7.493,0,14.536,2.917,19.834,8.215c22.762,22.763,59.798,22.761,82.558,0
		c5.298-5.297,12.341-8.215,19.833-8.215c7.492,0,14.536,2.917,19.834,8.215c11.025,11.026,25.685,17.098,41.279,17.098
		s30.253-6.072,41.279-17.098c5.298-5.297,12.341-8.215,19.834-8.215c7.492,0,14.535,2.917,19.833,8.215
		c22.76,22.761,59.796,22.763,82.558,0c5.923-5.922,5.923-15.524,0-21.446C449.925,402.818,440.323,402.818,434.401,408.741z"/>
</g>
<g>
</g>
<g>
</g>
<g>
</g>
<g>
</g>
<g>
</g>
<g>
</g>
<g>
</g>
<g>
</g>
<g>
</g>
<g>
</g>
<g>
</g>
<g>
</g>
<g>
</g>
<g>
</g>
<g>
</g>
</svg>
