<?xml version="1.0" encoding="iso-8859-1"?>
<!-- Generator: Adobe Illustrator 16.0.0, SVG Export Plug-In . SVG Version: 6.00 Build 0)  -->
<!DOCTYPE svg PUBLIC "-//W3C//DTD SVG 1.1//EN" "http://www.w3.org/Graphics/SVG/1.1/DTD/svg11.dtd">
<svg version="1.1" id="Capa_1" xmlns="http://www.w3.org/2000/svg" xmlns:xlink="http://www.w3.org/1999/xlink" x="0px" y="0px"
	 width="605.482px" height="605.482px" viewBox="0 0 605.482 605.482" style="enable-background:new 0 0 605.482 605.482;"
	 xml:space="preserve">
<g>
	<path id="Fill-20" d="M529.643,355.606c-38.715,14.116-81.563-5.842-95.671-44.572
		c-14.115-38.73,5.834-81.562,44.564-95.679c38.724-14.115,81.563,5.834,95.679,44.564
		C588.331,298.651,568.381,341.491,529.643,355.606L529.643,355.606z M103.523,386.23c9.307-8.146,23.352-20.442,53.809-20.442
		c30.457,0,44.493,12.296,53.792,20.435c6.216,5.452,8.083,7.09,18.909,7.09c10.833,0,12.701-1.638,18.9-7.082
		c9.307-8.146,23.352-20.442,53.808-20.442c30.457,0,44.485,12.296,53.793,20.435c6.199,5.452,8.083,7.09,18.908,7.09
		s12.709-1.638,18.9-7.082c5.222-4.562,12.065-10.38,22.326-14.656c0.223-13.933-4.006-31.713-17.033-50.652
		c-6.827-9.92-65.61-92.214-65.61-92.214l71.763-56.621c11.382-8.981,13.329-25.481,4.348-36.855
		c-8.989-11.382-25.474-13.305-36.855-4.348L281.91,202.98c-10.984,8.663-13.233,24.417-5.126,35.814l51.821,72.819l-198.94,48.356
		c-18.368,4.467-32.5,17.128-39.732,33.111C96.267,392.51,98.524,390.618,103.523,386.23L103.523,386.23z M565.941,416.123
		c7.034-6.144,12.089-10.603,27.619-10.603c6.597,0,11.922-5.325,11.922-11.922c0-6.581-5.325-11.922-11.922-11.922
		c-24.479,0-34.932,9.155-43.325,16.516c-7.312,6.391-12.589,11.008-29.367,11.008c-16.795,0-22.072-4.617-29.385-11.023
		c-8.393-7.353-18.828-16.5-43.324-16.5c-24.48,0-34.932,9.147-43.325,16.5c-7.312,6.406-12.59,11.023-29.376,11.023
		c-16.794,0-22.063-4.617-29.376-11.023c-8.401-7.353-18.845-16.5-43.325-16.5c-24.488,0-34.932,9.147-43.333,16.5
		c-7.296,6.406-12.582,11.023-29.376,11.023c-16.794,0-22.071-4.617-29.376-11.023c-8.401-7.353-18.845-16.5-43.325-16.5
		s-34.932,9.147-43.333,16.5c-7.296,6.406-12.574,11.023-29.376,11.023c-16.794,0-22.072-4.617-29.376-11.023
		c-8.417-7.345-18.861-16.5-43.341-16.5C5.341,381.677,0,387.018,0,393.599c0,6.597,5.341,11.922,11.922,11.922
		c15.515,0,20.593,4.451,27.611,10.603c8.616,7.543,19.338,16.922,45.089,16.922s36.474-9.379,45.089-16.922
		c7.026-6.151,12.105-10.603,27.62-10.603c15.514,0,20.593,4.451,27.611,10.603c8.616,7.543,19.337,16.922,45.089,16.922
		c25.751,0,36.474-9.379,45.089-16.922c7.026-6.151,12.097-10.603,27.619-10.603c15.515,0,20.578,4.451,27.611,10.603
		c8.616,7.543,19.338,16.922,45.09,16.922c25.743,0,36.474-9.379,45.089-16.922c7.034-6.151,12.089-10.603,27.62-10.603
		c15.53,0,20.601,4.451,27.627,10.603c8.607,7.543,19.33,16.922,45.09,16.922C546.611,433.045,557.333,423.674,565.941,416.123
		L565.941,416.123z M565.941,416.123c7.034-6.144,12.089-10.603,27.619-10.603c6.597,0,11.922-5.325,11.922-11.922
		c0-6.581-5.325-11.922-11.922-11.922c-24.479,0-34.932,9.155-43.325,16.516c-7.312,6.391-12.589,11.008-29.367,11.008
		c-16.795,0-22.072-4.617-29.385-11.023c-8.393-7.353-18.828-16.5-43.324-16.5c-24.48,0-34.932,9.147-43.325,16.5
		c-7.312,6.406-12.59,11.023-29.376,11.023c-16.794,0-22.063-4.617-29.376-11.023c-8.401-7.353-18.845-16.5-43.325-16.5
		c-24.488,0-34.932,9.147-43.333,16.5c-7.296,6.406-12.582,11.023-29.376,11.023c-16.794,0-22.071-4.617-29.376-11.023
		c-8.401-7.353-18.845-16.5-43.325-16.5s-34.932,9.147-43.333,16.5c-7.296,6.406-12.574,11.023-29.376,11.023
		c-16.794,0-22.072-4.617-29.376-11.023c-8.417-7.345-18.861-16.5-43.341-16.5C5.341,381.677,0,387.018,0,393.599
		c0,6.597,5.341,11.922,11.922,11.922c15.515,0,20.593,4.451,27.611,10.603c8.616,7.543,19.338,16.922,45.089,16.922
		s36.474-9.379,45.089-16.922c7.026-6.151,12.105-10.603,27.62-10.603c15.514,0,20.593,4.451,27.611,10.603
		c8.616,7.543,19.337,16.922,45.089,16.922c25.751,0,36.474-9.379,45.089-16.922c7.026-6.151,12.097-10.603,27.619-10.603
		c15.515,0,20.578,4.451,27.611,10.603c8.616,7.543,19.338,16.922,45.09,16.922c25.743,0,36.474-9.379,45.089-16.922
		c7.034-6.151,12.089-10.603,27.62-10.603c15.53,0,20.601,4.451,27.627,10.603c8.607,7.543,19.33,16.922,45.09,16.922
		C546.611,433.045,557.333,423.674,565.941,416.123L565.941,416.123z M565.941,463.318c7.034-6.159,12.089-10.595,27.619-10.595
		c6.597,0,11.922-5.341,11.922-11.922s-5.325-11.922-11.922-11.922c-24.479,0-34.932,9.132-43.325,16.492
		c-7.296,6.398-12.573,11.016-29.367,11.016c-16.795,0-22.072-4.617-29.385-11.016c-8.393-7.36-18.845-16.492-43.324-16.492
		c-24.48,0-34.932,9.132-43.325,16.492c-7.312,6.398-12.59,11.016-29.376,11.016c-16.794,0-22.063-4.617-29.376-11.016
		c-8.401-7.36-18.845-16.492-43.325-16.492c-24.488,0-34.932,9.132-43.333,16.492c-7.296,6.398-12.582,11.016-29.376,11.016
		c-16.794,0-22.071-4.617-29.376-11.016c-8.401-7.36-18.845-16.492-43.325-16.492s-34.932,9.132-43.333,16.492
		c-7.296,6.398-12.574,11.016-29.376,11.016c-16.794,0-22.072-4.617-29.376-11.016c-8.401-7.36-18.845-16.492-43.325-16.492
		c-6.581,0-11.922,5.341-11.922,11.922s5.341,11.922,11.922,11.922c15.515,0,20.594,4.436,27.612,10.587
		c8.616,7.543,19.337,16.922,45.089,16.922c25.751,0,36.474-9.379,45.081-16.922c7.034-6.151,12.113-10.587,27.627-10.587
		s20.593,4.436,27.612,10.587c8.616,7.543,19.337,16.922,45.089,16.922c25.752,0,36.474-9.379,45.082-16.922
		c7.034-6.151,12.105-10.587,27.627-10.587c15.515,0,20.578,4.436,27.62,10.587c8.607,7.543,19.329,16.922,45.081,16.922
		c25.744,0,36.474-9.379,45.09-16.922c7.033-6.151,12.089-10.587,27.619-10.587s20.602,4.436,27.627,10.587
		c8.616,7.543,19.33,16.922,45.09,16.922C546.611,480.232,557.333,470.854,565.941,463.318L565.941,463.318z"/>
</g>
</svg>
