<?xml version='1.0' encoding='iso-8859-1'?>
<svg version="1.1" xmlns="http://www.w3.org/2000/svg" viewBox="0 0 310.034 310.034" xmlns:xlink="http://www.w3.org/1999/xlink" enable-background="new 0 0 310.034 310.034">
  <g>
    <g>
      <path d="m122.219,195.477l11.855-39.741-31.412-12.058c-5.447-2.091-9.56-6.159-11.849-11.071h-1.288c-11.375,0-21.618,4.823-28.814,12.529-18.638-0.379-31.861,16.622-38.826,32.384-4.421,9.157-10.239,28.283-10.34,32.316-0.21,8.349 6.388,15.288 14.738,15.497 8.349,0.21 15.288-6.388 15.498-14.738 0.186-7.437 0.638-18.333 2.217-25.629 0.931-5.404 3.425-13.83 6.479-18.34-1.364,9.936 1.043,19.691 6.506,27.663l7.208,47.293-13.383,52.882c-1.693,6.692 2.359,13.491 9.052,15.185 6.684,1.693 13.489-2.354 15.185-9.052l14.002-55.333c0.409-1.617 0.49-3.301 0.239-4.95l-4.442-29.142c0.066,0.008 0.131,0.017 0.196,0.025l9.223,31.438-11.54,52.197c-1.49,6.74 2.766,13.413 9.507,14.903 6.73,1.491 13.412-2.758 14.903-9.507l12.233-55.333c0.455-2.057 0.383-4.195-0.211-6.217l-7.986-27.221h12.506c-2.426-4.777-3.105-10.452-1.456-15.98z"/>
      <path d="m293.634,95.143l-34.255-28.728 2.92-27.13c0.125-1.164-0.49-2.283-1.54-2.801-1.05-0.518-2.312-0.324-3.159,0.484-0.03,0.029-4.644,4.443-8.851,8.45-4.55,4.334-8.141,9.446-10.703,15.185l-7.357,16.471-18.859,28.281c2.756,4.352 3.846,9.757 2.611,15.177-2.46,10.794-13.205,17.55-23.999,15.091l-10.467-2.385c2.31,4.735 2.922,10.3 1.322,15.662l-17.587,58.956c-0.376,1.259-0.872,2.459-1.457,3.603h8.454l7.85,42.649-3.845,42.292c-0.625,6.875 4.441,12.955 11.316,13.58 6.87,0.626 12.955-4.439 13.58-11.316l4-44c0.104-1.134 0.051-2.275-0.154-3.395l-7.156-38.882 13.169,34.143-5.4,49.649c-0.746,6.863 4.212,13.032 11.075,13.778 6.874,0.746 13.033-4.221 13.778-11.075l5.729-52.667c0.216-1.983-0.046-3.988-0.765-5.85l-16.344-42.376 38.225-86.965 22.247,9.943c3.294,1.472 7.037,1.575 10.407,0.286 5.939-2.272 7.495-7.015 8.894-10.151 2.475-5.544 0.973-12.058-3.679-15.959z"/>
      <path d="m164.863,131.481c-6.276-2.425-15.078-4.784-17.555-5.689-5.651-1.288-9.62-6.045-10.197-11.504l-4.057-38.966 13.429,35.412c1.19,3.139 3.872,5.473 7.146,6.219l39.043,8.897c5.393,1.23 10.768-2.147 11.999-7.546 1.23-5.396-2.148-10.768-7.546-11.999l-33.804-7.703-11.522-30.387 12.087,16.889 3.424-8.969c2.944-7.711-0.92-16.348-8.63-19.292l-24.897-9.506c-7.711-2.944-16.348,0.92-19.292,8.631l-18.141,47.512c-0.606,1.588-1.041,3.199-1.321,4.813-1.143,6.572-1.699,21.73 11.083,26.402l39.732,15.252-14.402,48.28c-1.899,6.365 1.722,13.065 8.087,14.964 6.366,1.899 13.065-1.723 14.964-8.087l17.587-58.956c1.795-6.023-1.349-12.414-7.217-14.667z"/>
      <circle cx="160.553" cy="22.122" r="22.122"/>
    </g>
  </g>
</svg>
