<?xml version="1.0" encoding="iso-8859-1"?>
<!-- Generator: Adobe Illustrator 16.0.0, SVG Export Plug-In . SVG Version: 6.00 Build 0)  -->
<!DOCTYPE svg PUBLIC "-//W3C//DTD SVG 1.1//EN" "http://www.w3.org/Graphics/SVG/1.1/DTD/svg11.dtd">
<svg version="1.1" id="Capa_1" xmlns="http://www.w3.org/2000/svg" xmlns:xlink="http://www.w3.org/1999/xlink" x="0px" y="0px"
	 width="575.732px" height="575.732px" viewBox="0 0 575.732 575.732" style="enable-background:new 0 0 575.732 575.732;"
	 xml:space="preserve">
<g>
	<g id="Layer_1_9_">
		<g>
			<path d="M574.706,516.091l-51-207.825c-3.825-14.024-17.851-22.95-31.875-20.399c0,0-102,20.399-104.55,20.399
				c-19.125,35.7-39.525,70.125-58.65,102c-8.925,14.025-24.225,22.95-40.799,22.95c-16.575,0-31.875-8.925-40.8-22.95
				c-29.325-48.45-61.2-104.55-85.425-156.825l-93.075,36.975c-7.65,3.826-14.025,10.2-16.575,19.126l-51,205.274
				c-2.55,8.925,0,19.125,7.65,26.775c6.375,6.375,16.575,8.925,26.775,6.375l144.075-38.25c5.1-1.275,10.2-1.275,15.3,0
				l184.875,59.925c3.825,1.275,7.65,1.275,12.75,1.275l159.375-20.4c7.65-1.275,15.3-5.1,19.125-11.475
				S577.256,523.741,574.706,516.091z"/>
			<path d="M287.832,396.241L287.832,396.241c3.825,0,6.375-2.55,8.924-5.1c29.325-47.175,118.575-200.175,118.575-258.825
				c0-70.125-57.375-127.5-127.5-127.5c-70.125,0-127.5,57.375-127.5,127.5c0,58.65,89.25,211.65,118.575,258.825
				C281.457,393.691,285.281,396.241,287.832,396.241z M225.356,131.041c0-33.15,26.775-61.2,61.2-61.2
				c33.15,0,61.2,26.775,61.2,61.2c0,33.15-26.775,61.2-61.2,61.2C252.131,192.241,225.356,165.466,225.356,131.041z"/>
		</g>
	</g>
</g>
<g>
</g>
<g>
</g>
<g>
</g>
<g>
</g>
<g>
</g>
<g>
</g>
<g>
</g>
<g>
</g>
<g>
</g>
<g>
</g>
<g>
</g>
<g>
</g>
<g>
</g>
<g>
</g>
<g>
</g>
</svg>
