<svg height="512pt" viewBox="0 -17 512 512" width="512pt" xmlns="http://www.w3.org/2000/svg"><path d="m376.621094 303.320312-51.132813-72.347656c-15.503906-21.933594-40.664062-34.972656-67.492187-34.972656s-51.988282 13.039062-67.492188 34.972656l-51.136718 72.347656c-14.789063 20.929688-19.078126 47.539063-11.609376 72.066407l13.066407 42.925781c10.613281 34.867188 42.722656 58.6875 79.101562 58.6875h20.605469v-74.261719h-2.574219c-18.15625 0-35.019531-10.570312-42.960937-26.929687l-6.148438-12.664063c-8.660156-17.839843-5.582031-38.796875 7.839844-53.382812 9.015625-9.796875 21.816406-15.417969 35.121094-15.417969h47.382812c13.304688 0 26.105469 5.621094 35.121094 15.417969 13.421875 14.585937 16.5 35.542969 7.839844 53.382812l-6.148438 12.664063c-7.941406 16.359375-24.804687 26.929687-42.960937 26.929687h-2.574219v74.261719h25.59375c36.382812 0 68.488281-23.820312 79.101562-58.6875l13.070313-42.925781c7.46875-24.527344 3.179687-51.136719-11.613281-72.066407zm0 0"/><path d="m289.078125 362.6875 6.148437-12.664062c3.234376-6.660157 2.085938-14.480469-2.925781-19.925782-3.363281-3.65625-8.144531-5.753906-13.109375-5.753906h-47.382812c-4.964844 0-9.742188 2.097656-13.109375 5.753906-5.007813 5.445313-6.15625 13.265625-2.925781 19.925782l6.148437 12.664062c2.964844 6.105469 9.257813 10.050781 16.035156 10.050781h35.089844c6.773437 0 13.066406-3.945312 16.03125-10.050781zm0 0"/><path d="m50.289062 106.574219c6.027344-31.324219 22.863282-59.761719 47.417969-80.074219 7.351563-6.082031 15.289063-11.339844 23.652344-15.730469-8.894531-6.890625-19.902344-10.769531-31.53125-10.769531-49.53125 0-89.828125 40.375-89.828125 90.003906 0 23.683594 9.410156 46.5 25.953125 63.277344l7.441406-9.523438c8.457031-10.824218 14.300781-23.683593 16.894531-37.183593zm0 0"/><path d="m460.710938 106.574219c2.597656 13.5 8.4375 26.359375 16.898437 37.183593l7.875 10.082032c16.890625-16.828125 26.515625-39.886719 26.515625-63.835938 0-49.628906-40.296875-90.003906-89.828125-90.003906-11.804687 0-22.972656 3.992188-31.9375 11.082031 8.148437 4.328125 15.882813 9.480469 23.0625 15.417969 24.550781 20.3125 41.390625 48.75 47.414063 80.074219zm0 0"/><path d="m476.199219 190.617188-22.167969-28.367188c-11.425781-14.621094-19.214844-31.761719-22.722656-50-9.738282-50.648438-53.980469-87.25-105.460938-87.25h-140.695312c-51.480469 0-95.71875 36.601562-105.460938 87.25-3.507812 18.238281-11.296875 35.378906-22.722656 50l-22.167969 28.367188c-12.847656 16.445312-19.832031 36.730468-19.832031 57.617187v84.238281c0 11.585938 2.148438 23.066406 6.339844 33.863282l7.429687 19.15625c7.898438 20.359374 22.664063 37.304687 41.734375 47.890624l57.460938 31.90625c2.546875 1.414063 5.152344 2.703126 7.808594 3.867188-10.738282-12.0625-18.753907-26.308594-23.558594-42.089844l-13.066406-42.925781c-4.992188-16.394531-6.1875-34-3.460938-50.917969 2.726562-16.917968 9.390625-33.25 19.277344-47.238281l51.136718-72.347656c21.082032-29.828125 55.445313-47.632813 91.925782-47.632813 36.476562 0 70.84375 17.804688 91.925781 47.632813l51.136719 72.347656c9.882812 13.988281 16.550781 30.320313 19.277344 47.238281 2.722656 16.917969 1.527343 34.527344-3.460938 50.917969l-13.070312 42.925781c-4.074219 13.390625-10.46875 25.679688-18.871094 36.464844l55.1875-30.175781c19.320312-10.5625 34.292968-27.628907 42.265625-48.179688l7.308593-18.839843c4.1875-10.796876 6.335938-22.277344 6.335938-33.859376v-84.242187c0-20.886719-6.980469-41.171875-19.832031-57.617187zm-351.441407 33.382812c0 8.285156-6.703124 15-14.972656 15-8.269531 0-14.972656-6.714844-14.972656-15v-30c0-8.285156 6.703125-15 14.972656-15 8.269532 0 14.972656 6.714844 14.972656 15zm291.429688 0c0 8.285156-6.703125 15-14.972656 15-8.265625 0-14.96875-6.714844-14.96875-15v-30c0-8.285156 6.703125-15 14.96875-15 8.269531 0 14.972656 6.714844 14.972656 15zm0 0"/></svg>