<svg id="Layer_1" enable-background="new 0 0 512 512" viewBox="0 0 512 512" xmlns="http://www.w3.org/2000/svg"><g>
<path d="m45.594 366.818c0-1.602.028-3.197.073-4.788-9.532-11.762-14.751-27.181-14.751-43.839v-104.211c0-23.145 18.605-41.976 41.474-41.976 39.916 0 72.391-32.699 72.391-72.892v-42.04c0-8.537-6.921-15.458-15.458-15.458s-15.458 6.921-15.458 15.458v42.04c0 23.145-18.605 41.975-41.474 41.975-39.916 0-72.391 32.699-72.391 72.893v104.21c0 25.684 8.923 49.606 25.124 67.362 7.182 7.871 15.541 14.221 24.734 18.93-2.788-12.107-4.264-24.715-4.264-37.664z"/><path d="m325.723 248.751c-4.897-4.941-9.337-10.218-13.314-15.772h-101.616c-73.075 0-132.526 60.04-132.526 133.839s59.451 133.84 132.526 133.84h61.34v-117.958c0-32.391-26.014-58.752-58.023-58.84-8.572-.024-15.915-6.708-16.462-15.262-.608-9.509 6.924-17.41 16.302-17.41 50.098 0 90.856 41.052 90.856 91.513v117.957h133.808c6.551 0 11.156-6.562 8.808-12.677-5.552-14.458-19.445-24.732-35.664-24.732-.178 0-.354-.003-.531-.009-.175.005-.354.011-.529.009-9.005.001-16.315-7.29-16.335-16.299l-.182-80.406c-.011-4.659 1.97-9.102 5.441-12.21 24.83-22.223 40.638-45.702 48.25-72.094-10.364 2.704-21.138 4.105-32.128 4.105-34.021-.001-65.991-13.352-90.021-37.594z"/><path d="m512 158.322v-141.776c0-4.737-5.823-7.001-9.022-3.508l-44.779 48.876c-11.35 12.389-27.313 19.433-44.035 19.433-16.853 0-32.928-7.155-44.289-19.712l-41.343-45.697c-3.189-3.525-9.044-1.269-9.044 3.484v138.899c0 53.63 43.095 97.105 96.256 97.105s96.256-43.475 96.256-97.104zm-129.35-6.803c-7.508 3.556-16.452.298-19.976-7.276-3.525-7.574-.295-16.597 7.213-20.153s16.452-.298 19.977 7.276c3.524 7.574.295 16.597-7.214 20.153zm78.951 0c-7.508 3.556-16.452.298-19.977-7.276s-.295-16.597 7.213-20.153 16.452-.298 19.977 7.276c3.524 7.574.295 16.597-7.213 20.153z"/></g></svg>
