<?xml version="1.0" encoding="iso-8859-1"?>
<!-- Generator: Adobe Illustrator 16.0.0, SVG Export Plug-In . SVG Version: 6.00 Build 0)  -->
<!DOCTYPE svg PUBLIC "-//W3C//DTD SVG 1.1//EN" "http://www.w3.org/Graphics/SVG/1.1/DTD/svg11.dtd">
<svg version="1.1" id="Capa_1" xmlns="http://www.w3.org/2000/svg" xmlns:xlink="http://www.w3.org/1999/xlink" x="0px" y="0px"
	 width="756.09px" height="756.09px" viewBox="0 0 756.09 756.09" style="enable-background:new 0 0 756.09 756.09;"
	 xml:space="preserve">
<g>
	<g>
		<path d="M140.246,305.002c8.29,8.07,16.872,15.527,25.708,22.381c0.103-0.102,0.206-0.204,0.309-0.306
			c0.137-0.135,0.273-0.271,0.41-0.406c34.784-34.084,75.032-60.361,118.334-77.228c0.174-0.068,0.347-0.136,0.521-0.204
			c0.173-0.067,0.345-0.136,0.519-0.203c-2.192-1.989-4.404-3.976-6.662-5.959c-32.729-28.74-68.68-53.461-100.851-74.674
			c35.54,15.371,70.016,37.032,105.067,59.749c7.054,4.572,13.827,9.433,20.375,14.556c0.019-0.006,0.037-0.012,0.056-0.018
			c0.176-0.056,0.352-0.108,0.527-0.165c0.185-0.059,0.369-0.114,0.554-0.172c26.077-8.266,52.439-14.373,78.878-19.069
			c0.168-0.03,0.336-0.059,0.504-0.089c0.175-0.031,0.349-0.062,0.522-0.092c-1.447-2.905-2.938-5.785-4.479-8.631
			c-21.609-39.879-51.607-71.989-86.751-92.86c-45.802-27.194-96.242-42.516-145.021-57.334
			c-10.149-3.083-20.644-6.271-30.949-9.521C86.851,44.994,47.103,30.457,14.325,4.496c-1.612-1.277-3.459-1.952-5.34-1.952
			c-2.917,0-5.776,1.651-7.463,4.309c-1.833,2.888-2.02,6.385-0.51,9.594c14.059,29.896,23.773,61.967,33.167,92.981
			c11.647,38.452,23.691,78.213,44.138,114.333C95.849,254.733,116.685,282.066,140.246,305.002z"/>
		<path d="M744.562,189.573c-1.62,0-3.317,0.362-5.028,1.169c-49.805,23.489-106.965,32.579-160.646,37.324
			c-61.479,5.433-122.956,8.428-183.403,18.58c-0.175,0.029-0.35,0.057-0.523,0.086c-0.165,0.028-0.33,0.053-0.495,0.082
			c-22.482,3.806-44.823,8.613-66.965,14.911c-0.17,0.048-0.339,0.1-0.508,0.149c-0.187,0.053-0.372,0.11-0.56,0.163
			c-4.94,1.417-9.873,2.897-14.794,4.469c-1.837,0.587-3.666,1.192-5.487,1.812c-0.175,0.06-0.347,0.123-0.521,0.183
			s-0.349,0.124-0.525,0.184c-44.434,15.322-84.121,40.607-117.644,72.646c-0.133,0.127-0.264,0.255-0.396,0.382
			c-0.115,0.111-0.23,0.222-0.345,0.333c-50.343,48.396-86.691,112.034-104.188,179.951c-2.066,8.023,4.333,14.564,11.312,14.564
			c2.469,0,5.01-0.818,7.275-2.68c60.607-49.8,122.292-98.421,196.86-125.419c12.578-4.554,25.295-9.124,38.12-13.588
			c0.254-0.088,0.507-0.177,0.762-0.265c0.265-0.093,0.529-0.184,0.795-0.275c15.104-5.244,30.359-10.331,45.718-15.066
			c0.142-0.043,0.285-0.088,0.427-0.131c0.188-0.058,0.373-0.115,0.561-0.172c30.93-9.502,62.273-17.554,93.651-22.512
			c-29.922,10.989-59.752,22.26-89.072,34.491c-0.179,0.074-0.358,0.146-0.536,0.221c-0.137,0.057-0.271,0.113-0.407,0.17
			c-9.453,3.951-18.845,8.018-28.177,12.192c-0.203,0.091-0.406,0.181-0.608,0.271c-0.197,0.088-0.395,0.176-0.592,0.265
			c-19.377,8.697-38.465,17.922-57.124,27.9c-42.614,22.791-83.023,49.456-119.723,82.442
			c-64.227,57.729-117.02,134.088-137.042,218.89c-2.005,8.491,2.544,17.328,11.188,19.706c1.334,0.367,2.705,0.543,4.072,0.543
			c7.014,0,13.955-4.62,15.633-11.73c9.964-42.2,27.754-81.448,52.463-116.205c1.327-0.335,2.689-0.7,4.12-1.121
			c69.375-20.418,147.746-8,219.024-21.698c93.593-17.995,176.083-71.124,239.622-141.059
			c69.089-76.042,100.819-173.292,162.732-253.339C759.875,200.263,753.367,189.573,744.562,189.573z"/>
	</g>
</g>
<g>
</g>
<g>
</g>
<g>
</g>
<g>
</g>
<g>
</g>
<g>
</g>
<g>
</g>
<g>
</g>
<g>
</g>
<g>
</g>
<g>
</g>
<g>
</g>
<g>
</g>
<g>
</g>
<g>
</g>
</svg>
