<?xml version='1.0' encoding='utf-8'?>
<!DOCTYPE svg PUBLIC '-//W3C//DTD SVG 1.1//EN' 'http://www.w3.org/Graphics/SVG/1.1/DTD/svg11.dtd'>
<svg version="1.1" xmlns="http://www.w3.org/2000/svg" viewBox="0 0 512 512" xmlns:xlink="http://www.w3.org/1999/xlink" enable-background="new 0 0 512 512">
  <g>
    <g>
      <path d="m495,93.5l-76.2-76.5c-8-8-20.9-8-28.9,0-8,8-8,20.9 0,28.9l23.7,23.8-19.9,19.9 28.8,28.9 19.9-19.9 23.7,23.7c12.5,11 24.9,4 28.9,0 8-7.9 8-20.9 0-28.8z"/>
      <path d="m320.8,74.2c-8-8-20.9-8-28.9,0-8,8-8,20.9 0,28.9l11,11-102.2,102.2 94.9,95.1 102.2-102.2 11,11c3.7,4.7 18,10.9 28.9,0 8-8 8-20.9 0-28.9l-116.9-117.1z"/>
      <path d="m103.6,313.4c-21.2,21.2-25.2,53.1-12.2,78.4l-74.4,74.3c-8,8-8,20.9 0,28.9 4,4 15.8,11.2 28.9,0l74.3-74.3c9.4,4.9 45,19.1 78.3-12.1l68.3-68.3-94.9-95.1-68.3,68.2z"/>
    </g>
  </g>
</svg>
