<?xml version="1.0" encoding="iso-8859-1"?>
<!-- Generator: Adobe Illustrator 19.0.0, SVG Export Plug-In . SVG Version: 6.00 Build 0)  -->
<svg version="1.1" id="Capa_1" xmlns="http://www.w3.org/2000/svg" xmlns:xlink="http://www.w3.org/1999/xlink" x="0px" y="0px"
	 viewBox="0 0 512.001 512.001" style="enable-background:new 0 0 512.001 512.001;" xml:space="preserve">
<g>
	<g>
		<path d="M86.223,153.822c-5.427,0-9.844,4.416-9.844,9.844s4.416,9.844,9.844,9.844c5.428,0,9.844-4.416,9.844-9.844
			S91.65,153.822,86.223,153.822z"/>
	</g>
</g>
<g>
	<g>
		<path d="M86.223,77.442C38.68,77.442,0,116.122,0,163.664c0,23.552,12.847,54.324,38.183,91.461
			c18.126,26.568,36.018,46.659,36.77,47.502c2.868,3.208,6.967,5.042,11.27,5.042s8.402-1.834,11.27-5.042
			c0.753-0.842,18.644-20.933,36.77-47.502c25.337-37.136,38.183-67.909,38.183-91.461
			C172.446,116.122,133.766,77.442,86.223,77.442z M86.223,203.738c-22.096,0-40.073-17.977-40.073-40.073
			c0-22.097,17.977-40.073,40.073-40.073c22.097,0,40.073,17.977,40.073,40.073C126.297,185.761,108.319,203.738,86.223,203.738z"/>
	</g>
</g>
<g>
	<g>
		<path d="M356.418,404.328h-37.614c-26.648,0-48.329-21.681-48.329-48.329c0-43.318-35.242-78.56-78.56-78.56h-36.333
			c-8.349,11.897-16.467,22.36-22.834,30.23h59.169c26.649,0,48.329,21.681,48.329,48.33c0,43.317,35.242,78.559,78.559,78.559
			h60.447C372.884,426.687,364.766,416.224,356.418,404.328z"/>
	</g>
</g>
<g>
	<g>
		<path d="M425.777,280.71c-5.428,0-9.844,4.416-9.844,9.844c0,5.428,4.416,9.844,9.844,9.844s9.844-4.416,9.844-9.844
			C435.621,285.125,431.205,280.71,425.777,280.71z"/>
	</g>
</g>
<g>
	<g>
		<path d="M425.777,204.331c-47.543,0-86.222,38.68-86.222,86.222c0,23.553,12.847,54.325,38.183,91.462
			c18.126,26.567,36.017,46.659,36.769,47.501c2.869,3.208,6.967,5.042,11.271,5.042s8.402-1.834,11.271-5.042
			c0.753-0.842,18.644-20.933,36.769-47.501c25.337-37.136,38.183-67.909,38.183-91.462C512,243.01,473.32,204.331,425.777,204.331z
			 M425.777,330.627c-22.097,0-40.073-17.977-40.073-40.073c0-22.097,17.977-40.073,40.073-40.073s40.073,17.977,40.073,40.073
			S447.874,330.627,425.777,330.627z"/>
	</g>
</g>
<g>
</g>
<g>
</g>
<g>
</g>
<g>
</g>
<g>
</g>
<g>
</g>
<g>
</g>
<g>
</g>
<g>
</g>
<g>
</g>
<g>
</g>
<g>
</g>
<g>
</g>
<g>
</g>
<g>
</g>
</svg>
